<?xml version="1.0" standalone="no"?>
<!DOCTYPE svg PUBLIC "-//W3C//DTD SVG 20010904//EN"
 "http://www.w3.org/TR/2001/REC-SVG-20010904/DTD/svg10.dtd">
<svg version="1.0" xmlns="http://www.w3.org/2000/svg"
 width="512.000000pt" height="456.000000pt" viewBox="0 0 512.000000 456.000000"
 preserveAspectRatio="xMidYMid meet">

<g transform="translate(0.000000,456.000000) scale(0.100000,-0.100000)"
fill="#000000" stroke="none">
<path d="M3095 4502 c-77 -27 -148 -53 -158 -57 -32 -13 -40 -42 -26 -96 15
-58 6 -93 -31 -121 -24 -18 -35 -18 -150 -9 -238 19 -520 24 -605 11 -84 -13
-270 -63 -368 -100 -32 -12 -133 -72 -225 -133 -186 -124 -365 -286 -434 -391
-46 -71 -98 -227 -98 -294 0 -128 79 -255 217 -349 98 -67 140 -111 214 -223
27 -41 66 -96 85 -122 l35 -46 -122 -307 -121 -307 -32 5 c-17 3 -62 13 -101
21 -135 30 -376 12 -508 -38 -374 -141 -612 -447 -657 -848 -18 -159 19 -364
96 -527 83 -176 245 -349 414 -440 304 -163 627 -165 927 -6 128 67 220 145
326 274 l28 34 77 -37 78 -36 151 0 c124 0 154 3 167 16 34 34 16 75 -69 159
l-50 49 61 7 c78 9 122 28 172 73 60 55 86 115 86 206 0 60 -5 86 -26 132
l-26 57 126 118 c70 65 242 228 382 363 487 467 601 575 614 578 12 3 38 -51
51 -108 5 -21 0 -28 -37 -49 -147 -82 -299 -219 -381 -343 -221 -336 -220
-767 3 -1106 130 -199 317 -339 545 -410 394 -123 815 -25 1087 251 143 145
242 328 284 527 20 92 22 264 5 345 -93 444 -401 751 -841 841 -114 23 -362
15 -470 -15 -41 -11 -78 -21 -82 -21 -7 0 -98 276 -98 297 0 6 29 13 64 15 35
3 93 16 129 29 58 21 68 22 94 10 l28 -14 -25 -8 c-14 -4 -39 -7 -55 -8 -57
-2 -102 -59 -59 -75 33 -13 144 -5 220 15 74 20 139 35 191 45 12 2 32 14 43
27 32 34 81 130 78 152 -5 31 -220 162 -283 172 -29 5 -43 16 -82 72 -82 117
-87 121 -162 121 -66 0 -254 -15 -323 -26 -34 -5 -41 -2 -80 38 -56 56 -133
186 -159 267 -11 36 -24 108 -30 160 -6 53 -19 134 -30 181 -36 161 -24 184
69 135 26 -14 54 -25 64 -25 18 0 53 40 63 71 9 26 91 66 154 75 28 4 55 12
59 18 4 6 7 38 8 71 0 74 39 173 69 180 11 2 42 7 69 10 l48 7 -5 39 c-3 22
-24 78 -48 126 -85 172 -281 330 -422 340 -55 4 -78 -1 -202 -45z m-496 -1019
c19 -38 92 -255 87 -261 -4 -3 -25 5 -48 18 -23 13 -116 50 -206 81 -91 32
-169 62 -174 67 -6 6 14 12 54 16 118 12 135 17 199 57 73 45 75 45 88 22z
m-364 -613 c204 -12 273 -23 257 -43 -5 -7 -34 -43 -64 -82 -31 -38 -81 -109
-112 -157 -54 -82 -59 -88 -92 -88 -32 0 -36 4 -70 73 -20 39 -65 123 -100
184 -35 62 -64 118 -64 124 0 7 10 9 28 5 15 -3 113 -10 217 -16z m815 -116
c69 -34 178 -85 242 -114 64 -28 119 -58 122 -65 3 -10 -13 -15 -62 -19 -110
-9 -585 -29 -615 -25 -28 4 -27 5 51 92 53 59 83 101 92 130 12 43 29 70 39
65 3 -2 62 -31 131 -64z m677 5 c43 -6 98 -19 122 -30 39 -17 42 -21 30 -36
-34 -46 -54 -63 -73 -63 -22 0 -230 113 -241 130 -8 13 63 13 162 -1z m-2119
-242 c27 -33 172 -475 172 -526 0 -30 -54 -263 -65 -281 -10 -16 -17 -12 -75
41 -54 49 -124 99 -213 151 l-46 27 18 54 c10 29 53 161 96 293 43 131 79 242
82 247 6 11 19 9 31 -6z m2077 -70 c20 -15 20 -15 -5 -21 -98 -20 -97 -21
-114 31 -9 25 -16 50 -16 55 0 9 102 -40 135 -65z m-200 -94 l37 -117 -84 -80
c-45 -44 -142 -137 -213 -206 -72 -69 -180 -172 -240 -230 -61 -58 -207 -198
-325 -311 -333 -320 -315 -305 -338 -276 -8 10 27 167 63 285 3 8 36 12 112
13 139 2 167 8 171 37 5 33 -41 69 -179 143 -241 127 -283 203 -205 364 37 77
153 241 269 380 l75 90 254 11 c139 6 324 11 410 12 l157 2 36 -117z m-1632
-135 c30 -47 32 -62 13 -97 -8 -15 -16 -20 -20 -12 -14 22 -54 149 -49 155 10
10 30 -6 56 -46z m-443 -123 c-32 -96 -56 -154 -63 -152 -7 2 -10 13 -9 23 6
30 115 295 120 290 2 -3 -19 -75 -48 -161z m2842 -90 c267 -46 538 -233 673
-463 48 -81 98 -224 114 -322 26 -159 7 -351 -50 -500 -76 -199 -275 -417
-474 -517 -177 -90 -414 -123 -631 -88 -367 59 -689 351 -783 709 -27 104 -36
251 -22 359 29 214 113 383 273 545 74 75 241 196 262 189 6 -2 58 -151 116
-332 97 -300 109 -331 145 -373 56 -64 59 -69 59 -144 1 -62 4 -70 32 -99 40
-39 109 -51 149 -25 34 22 65 74 65 109 0 61 -54 117 -113 117 -28 0 -57 29
-85 85 -49 98 -252 658 -252 695 0 55 328 89 522 55z m-3061 -86 c41 -11 77
-23 81 -27 6 -6 -25 -91 -218 -584 l-66 -167 -45 -22 c-49 -24 -83 -69 -83
-110 0 -64 89 -137 149 -124 39 8 80 41 92 72 9 25 10 25 107 19 137 -10 345
-36 355 -45 5 -5 -8 -37 -27 -73 -33 -59 -76 -195 -76 -239 0 -40 47 -65 142
-77 134 -17 170 -47 123 -104 -139 -170 -296 -280 -480 -338 -99 -30 -316 -39
-436 -16 -306 58 -582 301 -689 607 -37 108 -50 188 -50 322 0 342 172 634
486 820 68 41 217 93 302 107 83 13 247 3 333 -21z m139 -51 c0 -6 -57 -182
-126 -390 l-125 -378 -29 15 c-16 8 -31 18 -33 22 -3 5 12 51 33 103 20 52 85
218 145 368 69 176 112 272 121 272 8 0 14 -5 14 -12z m169 -82 c36 -24 95
-70 130 -102 l64 -58 -6 -60 c-10 -102 -36 -336 -48 -426 -6 -47 -19 -105 -30
-128 -18 -43 -20 -44 -56 -38 -21 3 -125 15 -232 28 -200 23 -221 30 -221 71
0 21 240 753 255 776 9 15 61 -8 144 -63z m641 -286 c94 -21 180 -57 180 -75
0 -14 -66 -255 -71 -259 -10 -8 -77 -14 -87 -7 -10 6 -122 331 -122 354 0 10
-2 10 100 -13z m-115 -241 l46 -142 -43 -44 c-51 -52 -47 -59 -78 128 -20 127
-21 138 -6 168 9 17 21 31 26 31 5 0 30 -64 55 -141z m-116 -213 c1 -53 -2
-67 -11 -58 -14 14 -23 112 -13 149 l8 28 7 -25 c5 -14 8 -56 9 -94z"/>
</g>
</svg>
